# xmcd CD database file
#
# Track frame offsets:
#	150
#	21832
#	40500
#	59747
#	76555
#	93080
#	115090
#	135867
#	154692
#	175380
#	194030
#	218117
#
# Disc length: 3195 seconds
#
# Revision: 1
# Processed by: cddbd v1.5.1PL0 Copyright (c) Steve Scherf et al.
# Submitted via: CDex 1.40Release
#
DISCID=930c790c
DTITLE=Lacy J. Dalton - The Last Wild Place
DYEAR=2004
DGENRE=Country
TTITLE0=Listen To the Wind
TTITLE1=Heart of Hearts
TTITLE2=The Wanderers
TTITLE3=Old Dog Blue
TTITLE4=The Alaska Song
TTITLE5=Standin' Knee Deep
TTITLE6=Slip Away
TTITLE7=Little Boy Blue
TTITLE8=The Last Wild Place
TTITLE9=Sanctuary
TTITLE10=She Could Run
TTITLE11=Boundless Skies
EXTD=YEAR: 2004 ID3G: 2
EXTT0=
EXTT1=
EXTT2=
EXTT3=
EXTT4=
EXTT5=
EXTT6=
EXTT7=
EXTT8=
EXTT9=
EXTT10=
EXTT11=
PLAYORDER=
